# xmcd
#
# Track frame offsets: 
#        150
#        9705
#        32517
#        49692
#        67045
#        83337
#        97770
#        122865
#        139420
#        155612
#
# Disc length: 2291 seconds
#
# Revision: 3
# Processed by: cddbd v1.5.1PL0 Copyright (c) Steve Scherf et al.
# Submitted via: ExactAudioCopy v0.95a5
#
DISCID=7a08f10a
DTITLE=Poco - From The Inside
DYEAR=1971
DGENRE=Country Rock
TTITLE0=Hoe Down
TTITLE1=Bad Weather
TTITLE2=What Am I Gonna Do
TTITLE3=You Are The One
TTITLE4=Railroad Days
TTITLE5=From The Inside
TTITLE6=Do You Feel It Too
TTITLE7=Ol' Forgiver
TTITLE8=What If I Should Say I Love You
TTITLE9=Just For Me And You
EXTD=
EXTT0=
EXTT1=
EXTT2=
EXTT3=
EXTT4=
EXTT5=
EXTT6=
EXTT7=
EXTT8=
EXTT9=
PLAYORDER=
